<?xml version="1.0" ?><!DOCTYPE svg  PUBLIC '-//W3C//DTD SVG 1.1//EN'  'http://www.w3.org/Graphics/SVG/1.1/DTD/svg11.dtd'><svg class="icon" height="200.00px" version="1.1" viewBox="0 0 1024 1024" width="200px" xmlns="http://www.w3.org/2000/svg"><path d="M176 1024a16 16 0 0 1 0-32h192V656a16 16 0 0 1 32 0v336h448a16 16 0 0 1 0 32H176z m176-400a16 16 0 0 1-16-16V288a16 16 0 0 1 16-16h32v-48a16 16 0 0 1 16-16h32v-48a16 16 0 0 1 16-16h128a16 16 0 0 1 16 16v48h32a16 16 0 0 1 16 16v48h32a16 16 0 0 1 16 16v320a16 16 0 0 1-16 16h-16v336a16 16 0 0 1-32 0V624H352z m160 32a16 16 0 0 1 16 16v272a16 16 0 0 1-32 0V672a16 16 0 0 1 16-16z m-64 48a16 16 0 0 1 16 16v176a16 16 0 0 1-32 0V720a16 16 0 0 1 16-16z m128 0a16 16 0 0 1 16 16v176a16 16 0 0 1-32 0V720a16 16 0 0 1 16-16z m80-400H368v288h288V304z m-144 32a112 112 0 1 1 0 224 112 112 0 0 1 0-224z m0 32a80 80 0 1 0 0 160 80 80 0 0 0 0-160z m0 16a16 16 0 0 1 16 16v32h32a16 16 0 0 1 0 32h-48a16 16 0 0 1-16-16v-48a16 16 0 0 1 16-16z m-48-144h-48v32h48v-32z m64 0h-32v32h32v-32z m80 0h-48v32h48v-32z m-48-64h-96v32h96v-32zM512 0a16 16 0 0 1 16 16v16l-0.048 0.768L576 143.984h-31.6L512 66.384 479.6 144H448l48.016-111.2L496 16a16 16 0 0 1 16-16z" fill="#000000"/></svg>